<svg width="1920" height="942" viewBox="0 0 1920 942" fill="none" xmlns="http://www.w3.org/2000/svg">
<g clip-path="url(#clip0_2202_5)">
<rect width="1920" height="942" fill="#FBFBFB"/>
<path d="M1903.12 -19.5264H430.85C421.674 -19.5264 414.234 -12.0862 414.234 -2.9082V904.909C414.234 914.087 421.674 921.528 430.85 921.528H1903.12C1912.3 921.528 1919.74 914.087 1919.74 904.909V-2.9082C1919.74 -12.0862 1912.3 -19.5264 1903.12 -19.5264Z" fill="#FBFBFB"/>
<mask id="mask0_2202_5" style="mask-type:luminance" maskUnits="userSpaceOnUse" x="1036" y="-20" width="884" height="771">
<path d="M1903.54 -19.5264H1415.84C1412.59 18.3335 1389.72 88.6635 1270.87 126.312C1103.02 179.495 1021.66 249.376 1038.32 373.128C1054.99 496.879 1172.92 583.801 1333.5 608.107C1494.11 632.414 1542.43 732.043 1676.07 746.574C1786.31 758.543 1856.94 743.721 1919.71 709.058V-3.33091C1919.71 -12.2609 1912.47 -19.5264 1903.52 -19.5264H1903.54Z" fill="white"/>
</mask>
<g mask="url(#mask0_2202_5)">
<path d="M1903.54 -19.5264H1415.84C1412.59 18.3335 1389.72 88.6635 1270.87 126.312C1103.02 179.495 1021.66 249.376 1038.32 373.128C1054.99 496.879 1172.92 583.801 1333.5 608.107C1494.11 632.414 1542.43 732.043 1676.07 746.574C1786.31 758.543 1856.94 743.721 1919.71 709.058V-3.33091C1919.71 -12.2609 1912.47 -19.5264 1903.52 -19.5264H1903.54Z" fill="#F5F5F5"/>
<path d="M1627.23 255.585L1539.47 282.824L1472.06 242.692C1470.71 241.9 1470.95 239.865 1472.45 239.416C1480.62 236.88 1489.25 236.193 1497.71 237.382L1627.2 255.585H1627.23Z" fill="#FFBB8A"/>
<path d="M1490.18 236.853L1553.39 274.475L1618.27 254.343L1497.73 237.408C1495.22 237.065 1492.71 236.88 1490.18 236.88V236.853Z" fill="#FFBB8A"/>
<path d="M1331.5 314.449L1330.39 314.792C1322.12 317.355 1313.19 316.615 1305.47 312.705L1224.09 271.49C1220.78 269.799 1216.93 269.482 1213.39 270.592L1207.73 272.335C1206.65 272.679 1206.12 273.868 1206.54 274.898L1235.97 344.118L1240.25 354.079L1334.69 324.753L1331.5 314.449Z" fill="#FFBB8A"/>
<path d="M1416.42 358.438L1777.46 246.338C1798.17 239.918 1818.06 231.173 1836.82 220.288L1884.31 192.705C1885 192.309 1885.63 191.834 1886.21 191.279C1892.29 185.466 1888.91 175.189 1880.56 174.132L1827.39 167.342C1816.82 165.995 1806.09 166.919 1795.9 170.09L1242 342.084C1240.73 342.48 1239.62 343.273 1238.8 344.33C1236.21 347.791 1237.77 352.784 1241.89 354.132L1251.51 357.276C1305.03 374.739 1362.67 375.135 1416.42 358.438Z" fill="#FFBB8A"/>
<path d="M1392.81 345.228L1793.12 220.922C1816.08 213.789 1838.16 204.092 1858.93 192.045L1885.79 176.431C1884.39 175.215 1882.62 174.37 1880.54 174.106L1827.36 167.316C1816.79 165.968 1806.07 166.893 1795.87 170.063L1241.97 342.058C1240.7 342.454 1239.59 343.247 1238.77 344.303C1237.06 346.602 1237.19 349.535 1238.67 351.675C1289.57 362.877 1342.7 360.763 1392.78 345.202L1392.81 345.228Z" fill="#FBFBFB"/>
<path d="M1811.25 183.987L1853.93 170.724L1827.31 167.237L1807.89 173.26C1804.93 174.185 1803.27 177.329 1804.19 180.288C1805.12 183.247 1808.26 184.912 1811.22 183.987H1811.25Z" fill="#FFBB8A"/>
<path d="M1751.53 206.869L1754.91 205.82C1756.15 205.434 1756.84 204.117 1756.45 202.877L1755.4 199.496C1755.02 198.255 1753.7 197.562 1752.46 197.947L1749.08 198.997C1747.84 199.382 1747.15 200.7 1747.53 201.94L1748.58 205.321C1748.97 206.561 1750.29 207.255 1751.53 206.869Z" fill="#FFBB8A"/>
<path d="M1728.11 214.257L1731.49 213.208C1732.73 212.822 1733.42 211.505 1733.04 210.265L1731.99 206.884C1731.6 205.643 1730.29 204.95 1729.05 205.335L1725.67 206.385C1724.43 206.77 1723.73 208.088 1724.12 209.328L1725.17 212.709C1725.55 213.949 1726.87 214.643 1728.11 214.257Z" fill="#FFBB8A"/>
<path d="M1704.69 221.461L1708.07 220.412C1709.31 220.027 1710 218.709 1709.62 217.469L1708.57 214.088C1708.18 212.847 1706.86 212.154 1705.62 212.539L1702.24 213.589C1701 213.974 1700.31 215.292 1700.69 216.532L1701.74 219.913C1702.13 221.153 1703.45 221.847 1704.69 221.461Z" fill="#FFBB8A"/>
<path d="M1681.27 228.77L1684.65 227.72C1685.89 227.335 1686.58 226.018 1686.2 224.777L1685.15 221.396C1684.76 220.156 1683.45 219.463 1682.21 219.848L1678.83 220.898C1677.59 221.283 1676.89 222.6 1677.28 223.841L1678.33 227.222C1678.71 228.462 1680.03 229.155 1681.27 228.77Z" fill="#FFBB8A"/>
<path d="M1657.88 235.939L1661.26 234.889C1662.5 234.504 1663.19 233.186 1662.81 231.946L1661.76 228.565C1661.37 227.325 1660.06 226.632 1658.82 227.017L1655.44 228.067C1654.2 228.452 1653.5 229.769 1653.89 231.009L1654.94 234.39C1655.32 235.631 1656.64 236.324 1657.88 235.939Z" fill="#FFBB8A"/>
<path d="M1634.46 243.195L1637.85 242.145C1639.09 241.76 1639.78 240.442 1639.39 239.202L1638.34 235.821C1637.96 234.581 1636.64 233.887 1635.4 234.273L1632.02 235.322C1630.78 235.707 1630.09 237.025 1630.47 238.265L1631.52 241.646C1631.91 242.887 1633.22 243.58 1634.46 243.195Z" fill="#FFBB8A"/>
<path d="M1611.05 250.583L1614.43 249.533C1615.67 249.148 1616.36 247.83 1615.98 246.59L1614.93 243.209C1614.54 241.969 1613.23 241.275 1611.99 241.66L1608.61 242.71C1607.37 243.095 1606.67 244.413 1607.06 245.653L1608.11 249.034C1608.49 250.274 1609.81 250.968 1611.05 250.583Z" fill="#FFBB8A"/>
<path d="M1587.63 257.865L1591.01 256.815C1592.25 256.43 1592.95 255.112 1592.56 253.872L1591.51 250.491C1591.13 249.251 1589.81 248.558 1588.57 248.943L1585.19 249.993C1583.95 250.378 1583.26 251.695 1583.64 252.935L1584.69 256.316C1585.08 257.557 1586.39 258.25 1587.63 257.865Z" fill="#FFBB8A"/>
<path d="M1564.22 265.121L1567.6 264.071C1568.84 263.686 1569.53 262.368 1569.15 261.128L1568.1 257.747C1567.71 256.507 1566.39 255.813 1565.15 256.199L1561.77 257.248C1560.53 257.633 1559.84 258.951 1560.23 260.191L1561.28 263.572C1561.66 264.813 1562.98 265.506 1564.22 265.121Z" fill="#FFBB8A"/>
<path d="M1540.82 272.264L1544.2 271.214C1545.44 270.829 1546.13 269.512 1545.75 268.271L1544.7 264.89C1544.31 263.65 1543 262.957 1541.76 263.342L1538.38 264.392C1537.14 264.777 1536.44 266.095 1536.83 267.335L1537.88 270.716C1538.26 271.956 1539.58 272.649 1540.82 272.264Z" fill="#FFBB8A"/>
<path d="M1517.4 279.546L1520.78 278.497C1522.02 278.112 1522.72 276.794 1522.33 275.554L1521.28 272.173C1520.9 270.932 1519.58 270.239 1518.34 270.624L1514.96 271.674C1513.72 272.059 1513.03 273.377 1513.41 274.617L1514.46 277.998C1514.85 279.238 1516.16 279.932 1517.4 279.546Z" fill="#FFBB8A"/>
<path d="M1493.99 286.908L1497.37 285.858C1498.61 285.473 1499.3 284.155 1498.92 282.915L1497.87 279.534C1497.48 278.294 1496.16 277.601 1494.92 277.986L1491.54 279.036C1490.3 279.421 1489.61 280.738 1490 281.979L1491.05 285.36C1491.43 286.6 1492.75 287.293 1493.99 286.908Z" fill="#FFBB8A"/>
<path d="M1470.57 294.19L1473.95 293.14C1475.19 292.755 1475.89 291.438 1475.5 290.198L1474.45 286.816C1474.07 285.576 1472.75 284.883 1471.51 285.268L1468.13 286.318C1466.89 286.703 1466.2 288.021 1466.58 289.261L1467.63 292.642C1468.02 293.882 1469.33 294.575 1470.57 294.19Z" fill="#FFBB8A"/>
<path d="M1664.5 251.331L1529.38 293.286L1479.74 401.001C1478.37 403.96 1481.17 407.13 1484.29 406.179L1487.59 405.149C1496.62 402.348 1504.89 397.592 1511.87 391.199L1664.53 251.331H1664.5Z" fill="#FFBB8A"/>
<path d="M1507.64 393.101C1507.35 393.735 1507.27 394.369 1507.3 394.977C1508.86 393.788 1510.39 392.546 1511.84 391.199L1664.5 251.331L1557.7 284.488L1507.64 393.075V393.101Z" fill="#FFBB8A"/>
<path d="M1285.61 335.928L1238.06 350.697L1219.33 391.305L1228.15 388.557L1285.61 335.928Z" fill="#FFBB8A"/>
<path d="M1262.68 219.812C1265.43 214.74 1272.93 211.12 1281.78 211.12C1284.24 211.12 1286.59 211.411 1288.75 211.939C1289.84 208.874 1292.64 206.206 1296.47 204.383C1298.82 192.97 1314.09 184.145 1332.6 184.145C1346.58 184.145 1358.7 189.165 1364.83 196.536C1368.21 195.295 1372.15 194.555 1376.35 194.555C1389.11 194.555 1399.44 201.16 1399.44 209.297C1399.44 209.931 1399.36 210.565 1399.23 211.199C1399.91 211.147 1400.6 211.12 1401.31 211.12C1410.16 211.12 1417.67 214.766 1420.41 219.812H1262.71H1262.68Z" fill="#FBFBFB"/>
<path d="M987.869 301.714C990.616 296.642 998.119 293.022 1006.97 293.022C1009.43 293.022 1011.78 293.313 1013.94 293.841C1015.03 290.776 1017.83 288.108 1021.66 286.285C1024.01 274.872 1039.28 266.047 1057.79 266.047C1071.77 266.047 1083.89 271.067 1090.02 278.438C1093.4 277.197 1097.34 276.457 1101.54 276.457C1114.3 276.457 1124.63 283.062 1124.63 291.199C1124.63 291.833 1124.55 292.467 1124.42 293.101C1125.1 293.049 1125.79 293.022 1126.5 293.022C1135.35 293.022 1142.85 296.668 1145.6 301.714H987.896H987.869Z" fill="#FBFBFB"/>
<path d="M1631.43 352.837C1634.18 347.764 1641.68 344.145 1650.53 344.145C1652.98 344.145 1655.33 344.435 1657.5 344.964C1658.58 341.899 1661.38 339.231 1665.21 337.408C1667.57 325.994 1682.83 317.17 1701.35 317.17C1715.33 317.17 1727.45 322.19 1733.58 329.561C1736.96 328.319 1740.9 327.579 1745.1 327.579C1757.86 327.579 1768.19 334.184 1768.19 342.322C1768.19 342.956 1768.11 343.59 1767.97 344.224C1768.66 344.171 1769.35 344.145 1770.06 344.145C1778.91 344.145 1786.41 347.791 1789.16 352.837H1631.45H1631.43Z" fill="#FBFBFB"/>
<path d="M1685.4 177.25C1682.62 172.124 1675.01 168.425 1666.03 168.425C1663.55 168.425 1661.15 168.716 1658.95 169.244C1657.87 166.127 1655.02 163.432 1651.13 161.583C1648.73 149.984 1633.25 141.054 1614.47 141.054C1600.28 141.054 1588 146.153 1581.76 153.63C1578.33 152.362 1574.34 151.622 1570.09 151.622C1557.14 151.622 1546.66 158.333 1546.66 166.576C1546.66 167.236 1546.74 167.87 1546.87 168.505C1546.18 168.452 1545.47 168.425 1544.75 168.425C1535.77 168.425 1528.17 172.124 1525.39 177.25H1685.42H1685.4Z" fill="#FBFBFB"/>
<path d="M1666.35 38.5182C1668.54 34.4759 1674.54 31.5697 1681.59 31.5697C1683.55 31.5697 1685.42 31.8075 1687.17 32.2038C1688.04 29.7467 1690.26 27.6331 1693.32 26.18C1695.2 17.0651 1707.4 10.011 1722.17 10.011C1733.32 10.011 1743.01 14.0268 1747.9 19.8921C1750.59 18.8881 1753.74 18.3069 1757.09 18.3069C1767.26 18.3069 1775.53 23.5909 1775.53 30.0902C1775.53 30.5922 1775.45 31.1206 1775.37 31.5961C1775.93 31.5697 1776.48 31.5433 1777.04 31.5433C1784.12 31.5433 1790.09 34.4495 1792.28 38.4918H1666.35V38.5182Z" fill="#FBFBFB"/>
<path d="M1467.22 20.0243C1468.2 18.2277 1470.84 16.9331 1473.99 16.9331C1474.86 16.9331 1475.68 17.0388 1476.47 17.2238C1476.84 16.1405 1477.84 15.1894 1479.19 14.5553C1480.03 10.5131 1485.42 7.39551 1491.97 7.39551C1496.91 7.39551 1501.22 9.16566 1503.39 11.7812C1504.58 11.3321 1505.98 11.0679 1507.45 11.0679C1511.97 11.0679 1515.62 13.3929 1515.62 16.2991C1515.62 16.5368 1515.59 16.7482 1515.54 16.9596C1515.78 16.9596 1516.01 16.9596 1516.28 16.9596C1519.42 16.9596 1522.06 18.2541 1523.04 20.0507H1467.2L1467.22 20.0243Z" fill="#FBFBFB"/>
<path d="M1986.73 294.634C1984.25 290.037 1977.43 286.734 1969.4 286.734C1967.15 286.734 1965.04 286.998 1963.06 287.474C1962.08 284.674 1959.55 282.269 1956.06 280.631C1953.92 270.248 1940.05 262.243 1923.25 262.243C1910.57 262.243 1899.55 266.787 1893.98 273.498C1890.89 272.362 1887.35 271.701 1883.52 271.701C1871.95 271.701 1862.57 277.699 1862.57 285.096C1862.57 285.677 1862.65 286.259 1862.76 286.814C1862.15 286.761 1861.51 286.761 1860.88 286.761C1852.85 286.761 1846.03 290.063 1843.55 294.66H1986.76L1986.73 294.634Z" fill="#FBFBFB"/>
<path d="M2061.88 597.777H1005.25V787.261H2061.88V597.777Z" fill="#FFBB8A"/>
<path d="M2061.88 527.87H1005.25V568.821H2061.88V527.87Z" fill="#FFBB8A"/>
<path opacity="0.1" d="M1919.74 -19.5264H989.824V773.1H1919.74V-19.5264Z" fill="#FFBB8A"/>
<g opacity="0.39">
<path d="M977.566 766.574H936.172L1473.64 -60.636H1515.04L977.566 766.574Z" fill="#FBFBFB"/>
<path d="M1658.53 766.574H1617.14L2154.61 -60.636H2196L1658.53 766.574Z" fill="#FBFBFB"/>
<path d="M1582.06 766.574H1426.44L1963.91 -60.636H2119.55L1582.06 766.574Z" fill="#FBFBFB"/>
<path d="M902.755 766.574H747.109L1284.61 -60.636H1440.25L902.755 766.574Z" fill="#FBFBFB"/>
</g>
<path d="M1244.74 -111.098H1222V763.325H1244.74V-111.098Z" fill="#FBFBFB"/>
<path d="M1829.6 -111.098H1806.86V763.325H1829.6V-111.098Z" fill="#FBFBFB"/>
<path d="M2131.73 129.007V105.731L919.847 105.731V129.007L2131.73 129.007Z" fill="#FBFBFB"/>
</g>
<path d="M1442.89 794.263C1556.49 794.263 1648.57 785.285 1648.57 774.21C1648.57 763.135 1556.49 754.157 1442.89 754.157C1329.3 754.157 1237.21 763.135 1237.21 774.21C1237.21 785.285 1329.3 794.263 1442.89 794.263Z" fill="#F5F5F5"/>
<path d="M1527.13 492.652L1454.09 511.093C1454.09 511.093 1472.95 592.995 1480.3 623.008C1487.83 653.734 1483.65 752.598 1483.65 752.598H1504.55L1515.85 622.638L1527.16 492.678L1527.13 492.652Z" fill="#236B44"/>
<path d="M1511.23 359.548C1511.23 359.548 1518.68 385.254 1530.73 428.874C1530.73 428.874 1546.23 434.501 1588.18 437.487L1586.86 451.436C1586.86 451.436 1540.61 459.812 1515.09 449.27C1489.57 438.755 1468.2 345.439 1511.23 359.548Z" fill="#FFA689"/>
<path d="M1551.67 449.455L1573.55 474.792L1608.89 428.768L1594.6 401.186L1551.67 449.455Z" fill="#5EB083"/>
<path d="M1547.84 460.076L1584.96 410.301L1608.89 428.768L1573.55 474.792L1547.84 460.076Z" fill="#5EB083"/>
<path d="M1602.74 438.993C1602.58 438.227 1601.6 437.936 1600.94 438.359C1599.67 439.178 1598.14 441.08 1594.55 441.186C1590.96 441.291 1586.25 438.781 1584.7 440.419C1584.7 440.419 1576.93 450.327 1584.8 460.129C1584.8 460.129 1608.63 466.337 1602.74 438.993Z" fill="#FFA689"/>
<path d="M1496.52 433.92C1496.52 433.92 1515.09 431.172 1530.33 418.042C1530.33 418.042 1524.94 389.059 1517.44 371.569C1509.94 354.079 1498.1 338.782 1478.87 350.169C1459.64 361.556 1465.24 387.659 1496.52 433.92Z" fill="#5EB083"/>
<path d="M1434.47 422.242C1434.47 422.242 1450.32 432.308 1470.42 432.308C1470.42 432.308 1485.26 406.84 1491 388.689C1496.73 370.565 1497.76 351.225 1475.75 347.289C1453.75 343.352 1440.94 366.787 1434.44 422.242H1434.47Z" fill="#5EB083"/>
<path d="M1517.07 500.525C1517.07 500.525 1471.92 485.281 1443.95 510.512C1443.95 510.512 1449.07 534.21 1464.53 562.559C1490.63 610.511 1503.99 626.02 1503.99 626.02C1503.99 626.02 1475.54 651.33 1420.73 714.606C1420.73 714.606 1424.16 727.552 1435.21 731.7C1435.21 731.7 1515.54 655.927 1539.76 635.716C1547.69 629.111 1546.08 624.144 1542.96 609.507C1537.68 584.725 1520.19 511.806 1517.1 500.525H1517.07Z" fill="#236B44"/>
<path d="M1478.63 312.679L1477.66 332.494C1477.66 332.494 1493.22 345.307 1506.03 344.726L1511.95 318.306L1475.68 293.656L1478.63 312.679Z" fill="#FFA689"/>
<path d="M1486.11 309.218C1486.11 309.218 1494.38 324.647 1509.46 329.35L1511.94 318.28L1486.11 309.191V309.218Z" fill="#ED8A6D"/>
<path d="M1454.25 582.348L1417.37 554.342C1415.31 552.757 1414.89 549.825 1416.48 547.737C1418.06 545.677 1420.99 545.254 1423.08 546.839L1459.96 574.844C1462.02 576.43 1462.44 579.362 1460.86 581.449C1459.27 583.51 1456.34 583.933 1454.25 582.348Z" fill="#07150E"/>
<path d="M1423.58 557.46L1342.51 664.25" stroke="#07150E" stroke-width="0.94" stroke-miterlimit="10"/>
<path d="M1449.55 577.249L1368.48 684.012" stroke="#07150E" stroke-width="0.94" stroke-miterlimit="10"/>
<path d="M1446.3 363.062C1446.3 363.062 1406.83 365.043 1400.49 387.315C1394.15 409.587 1395 497.117 1395 497.117C1395 497.117 1403.32 517.011 1430 519.574C1430 519.574 1443.92 522.797 1443.1 493.576C1442.31 464.382 1446.27 363.062 1446.27 363.062H1446.3Z" fill="#050D08"/>
<path d="M1424.08 367.368C1424.08 367.368 1420.12 370.829 1418.01 375.373C1410.27 392.018 1412.65 436.906 1409.37 440.525C1406.62 443.537 1401.97 444.092 1397.38 445.36C1395.42 445.888 1393.12 444.647 1393.23 442.744C1394.97 404.356 1392.01 372.414 1424.08 367.368Z" fill="#18432B"/>
<path d="M1395.37 450.776C1395.37 450.776 1405.99 448.345 1407.84 450.882C1410.48 454.501 1409.45 495.69 1406.49 496.826C1403.56 497.962 1393.2 497.064 1392.62 496.192C1390.43 492.942 1389.06 452.123 1395.37 450.802V450.776Z" fill="#18432B"/>
<path d="M1528.9 263.009C1528.9 263.009 1539.84 316.245 1523.59 322.745C1507.35 329.244 1483.57 312.679 1477.76 295.823C1472.8 281.45 1473.32 247.315 1528.9 263.009Z" fill="#FFA689"/>
<path d="M1512.79 271.358C1512.79 271.358 1517.2 282.666 1508.48 285.334C1501.38 287.5 1499.32 292.732 1499.32 292.732C1499.32 292.732 1497.86 281.371 1490.12 280.948C1481.7 280.499 1482.17 292.52 1489.57 298.438C1489.57 298.438 1489.57 312.705 1478.63 312.705C1478.63 312.705 1453.96 284.383 1464.74 267.289C1463.15 262.084 1470.52 248.187 1489.44 246.417C1508.35 244.647 1513.79 249.059 1528.16 244.594C1541.9 240.341 1550.96 273.286 1512.82 271.384L1512.79 271.358Z" fill="#050D08"/>
<path opacity="0.22" d="M1481.62 496.113L1530.31 622.612L1427.04 721.792" stroke="#FBFBFB" stroke-width="0.25" stroke-miterlimit="10"/>
<path d="M1344.7 774.13C1344.7 780.656 1339.42 785.967 1332.87 785.967C1326.32 785.967 1321.03 780.683 1321.03 774.13C1321.03 767.578 1326.32 762.294 1332.87 762.294C1339.42 762.294 1344.7 767.578 1344.7 774.13Z" fill="#07150E"/>
<path d="M1300.64 753.259C1300.64 759.784 1295.36 765.095 1288.81 765.095C1282.25 765.095 1276.97 759.811 1276.97 753.259C1276.97 746.706 1282.25 741.422 1288.81 741.422C1295.36 741.422 1300.64 746.706 1300.64 753.259Z" fill="#07150E"/>
<path d="M1396.53 661.978C1396.53 661.978 1400.18 714.818 1381.26 743.985C1362.35 773.153 1334.74 768.424 1334.74 768.424L1340.42 759.494C1340.42 759.494 1360.37 767.658 1372.18 736.508C1384.01 705.359 1381.63 673.021 1381.63 673.021L1396.5 661.978H1396.53Z" fill="#07150E"/>
<path d="M1374.66 647.05C1374.66 647.05 1386.49 648.186 1395.87 659.441C1403.11 668.107 1348.93 751.911 1336.75 770.511C1335.3 772.73 1332.6 773.761 1330.04 773.074C1321.32 770.749 1301.17 764.487 1286.53 753.444C1286.53 753.444 1342.46 655.293 1374.66 647.05Z" fill="#050D08"/>
<path d="M1378.86 647.975C1378.86 647.975 1334.37 621.212 1310.49 643.431C1294.64 658.173 1264.11 699.705 1252.27 716.086C1249.42 720.049 1249.87 725.491 1253.35 728.926C1260.99 736.403 1277 748.239 1288.28 754.395C1289.94 755.319 1292.03 754.765 1293.08 753.179C1302.75 738.516 1349.01 669.666 1378.89 647.949L1378.86 647.975Z" fill="#18432B"/>
<path d="M1280.35 681.449C1278.61 680.075 1275.99 680.815 1274.65 682.585C1268.99 690.009 1254.86 708.582 1252.77 712.096C1248.68 718.965 1265.43 733.496 1285.9 744.302C1292.29 747.684 1300.11 733.021 1308.35 721.792C1313.8 714.368 1318.5 707.843 1317.89 705.438C1317.2 702.849 1306.56 699.52 1296.81 693.497C1290.44 689.534 1285 685.121 1280.35 681.475V681.449Z" fill="#236B44"/>
<path d="M1378.86 647.975C1378.86 647.975 1358.76 633.735 1330.25 633.285C1306.03 632.916 1279.43 674.844 1279.43 674.844C1275.99 679.256 1317.49 704.408 1322.12 698.675C1340.45 676.086 1358.39 658.939 1367.53 650.67C1368.16 650.141 1373.07 646.178 1378.89 647.975H1378.86Z" fill="#236B44"/>
<path d="M1303.47 748.978L1328.25 711.594C1329.14 710.247 1330.91 709.745 1332.37 710.458L1356.62 721.951C1358.15 722.691 1358.68 724.593 1357.75 726.02L1333.74 762.426C1332.37 764.513 1329.67 765.359 1327.35 764.381L1305.37 755.214C1302.91 754.183 1302.01 751.198 1303.47 748.978Z" fill="#103F26"/>
<path d="M1472.14 335.004C1472.14 335.004 1447.89 339.389 1443.95 375.664C1440.01 411.939 1443.95 514.607 1443.95 514.607C1443.95 514.607 1466.67 523.405 1492.42 510.855C1509.01 502.771 1519.61 502.321 1524.1 501.318C1525.92 500.895 1527.19 499.336 1527.21 497.46C1527.27 493.497 1527.32 485.888 1527.29 474.422C1527.21 442.375 1523.75 387.844 1509.96 350.433C1509.96 350.433 1486.56 336.14 1472.16 335.004H1472.14Z" fill="#5EB083"/>
<path d="M1488.49 401.265C1468.25 400.261 1453.27 408.372 1442.21 420.816C1441.99 463.616 1443.95 514.607 1443.95 514.607C1443.95 514.607 1457.47 519.811 1475.44 516.456C1462.57 496.773 1462.47 478.728 1473.59 456.588C1482.49 438.887 1488.49 401.265 1488.49 401.265Z" fill="#5EB083"/>
<path d="M1443.95 375.664C1443.95 375.664 1463.18 344.356 1477.26 349.64C1494.56 356.14 1498.08 389.587 1472.14 424.62L1458.32 439.23L1454.78 452.229C1454.78 452.229 1489.97 421.186 1498.23 391.014C1506.5 360.842 1495.65 348.874 1480.48 343.696C1461.86 337.328 1452.93 348.689 1441.57 364.383L1443.92 375.611L1443.95 375.664Z" fill="#050D08"/>
<path d="M1440.78 408.002C1440.78 408.002 1434.86 433.629 1432.91 465.967C1431.24 493.154 1430.98 526.628 1430.95 536.588C1430.95 538.305 1430.29 539.943 1429.08 541.132C1425.85 544.303 1419.65 552.149 1420.7 564.725C1421.07 569.138 1423 575.241 1433.96 578.754C1435.47 579.23 1439.43 580.895 1439.43 573.206C1439.43 565.518 1442.55 560.34 1445.69 557.777C1448.84 555.214 1452.06 561.978 1452.06 567.473C1452.06 572.968 1455.76 569.481 1456.5 565.571C1457.24 561.661 1456.66 551.146 1448.36 540.208C1448.36 540.208 1448.2 538.279 1449.26 525.122C1450.29 511.965 1452.51 467.421 1457.24 456.034C1461.97 444.647 1475.57 412.176 1475.57 412.176L1440.83 407.976L1440.78 408.002Z" fill="#FFA689"/>
<path d="M1434.47 424.779C1434.47 424.779 1450.32 432.308 1470.42 432.308C1470.42 432.308 1485.26 406.84 1491 388.689C1496.73 370.565 1497.76 351.225 1475.75 347.289C1453.75 343.352 1440.94 369.323 1434.44 424.779H1434.47Z" fill="#5EB083"/>
<path d="M1484.05 750.432C1484.05 750.432 1478.24 758.886 1481.09 771.118C1481.51 772.941 1483.07 774.183 1484.79 774.183H1547.55C1548.85 774.183 1549.88 772.968 1549.72 771.594C1549.3 768.027 1546.37 761.819 1531.44 759.996C1527.35 759.494 1523.44 757.961 1520.19 755.425C1514.82 751.224 1506.64 745.465 1503.81 747.05C1503.81 747.05 1494.8 752.492 1484.02 750.432H1484.05Z" fill="#050D08"/>
<path d="M1477.87 328.161C1475.62 328.24 1472.11 335.004 1472.11 335.004C1472.11 335.004 1478.77 340.129 1494.91 346.047C1502.38 348.795 1506.13 352.652 1507.85 355.083C1508.38 355.823 1509.52 355.532 1509.62 354.634C1510.1 351.041 1510.31 344.726 1506.79 341.08C1506.79 341.08 1484.55 335.004 1477.82 328.161H1477.87Z" fill="#236B44"/>
<path d="M1421.05 714.791C1421.05 714.791 1410.88 716.086 1403.61 726.337C1402.53 727.842 1402.63 729.85 1403.8 731.145L1445.53 778.041C1446.41 779.018 1447.99 778.965 1448.92 777.935C1451.29 775.24 1453.96 768.926 1445.46 756.561C1443.1 753.179 1441.65 749.243 1441.39 745.121C1440.96 738.305 1439.83 728.371 1436.74 727.314C1436.74 727.314 1426.7 724.197 1421.07 714.791H1421.05Z" fill="#050D08"/>
<path d="M1446.93 564.963L1456.81 572.467L1456 576.852L1444.48 571.093L1446.93 564.963Z" fill="#07150E"/>
<path d="M1177.14 655.584C1177.14 658.411 1161.69 660.709 1142.62 660.709C1123.54 660.709 1108.09 658.411 1108.09 655.584C1108.09 652.757 1123.54 650.458 1142.62 650.458C1161.69 650.458 1177.14 652.757 1177.14 655.584Z" fill="#103F26"/>
<path d="M1142.62 779.943C1178.45 779.943 1207.5 776.595 1207.5 772.466C1207.5 768.337 1178.45 764.989 1142.62 764.989C1106.78 764.989 1077.74 768.337 1077.74 772.466C1077.74 776.595 1106.78 779.943 1142.62 779.943Z" fill="#F5F5F5"/>
<path d="M1151.02 664.593C1151.02 664.593 1143.86 643.034 1153 633.285C1162.14 623.536 1147.5 607.077 1169.16 597.803C1190.83 588.504 1190.09 566.786 1208.92 566.707C1227.78 566.601 1242.6 557.83 1248.76 566.152C1254.91 574.474 1226.33 578.517 1226.28 592.651C1226.22 606.786 1223.42 608.134 1215.71 616.958C1211.38 621.898 1213.39 632.81 1203.77 643.404C1196.24 651.7 1176.4 648.9 1151.02 664.593Z" fill="#236B44"/>
<path d="M1151.02 664.593C1151.02 664.593 1160.05 642.955 1180.84 631.515C1201.63 620.049 1194.29 573.418 1248.78 566.152" stroke="#FBFBFB" stroke-width="0.4" stroke-linecap="round" stroke-linejoin="round"/>
<path d="M1155.27 674.844C1155.27 674.844 1151.47 644.012 1158.44 619.23C1165.41 594.448 1154 586.522 1134.48 580.102C1114.93 573.708 1127.22 553.286 1121.4 534.237C1115.59 515.188 1100.96 544.778 1096.1 518.86C1091.24 492.942 1083.84 479.547 1077.92 480.657C1072.01 481.767 1070.02 487.5 1065.82 517.143C1061.6 546.786 1041.02 544.593 1058.88 568.107C1076.73 591.595 1081.28 584.963 1071.37 605.359C1050.19 648.926 1126.03 636.033 1155.3 674.844H1155.27Z" fill="#5EB083"/>
<path d="M1155.27 674.844C1155.27 674.844 1145.55 622.982 1117.52 597.381C1089.49 571.78 1070.92 544.382 1077.92 480.684" stroke="#FBFBFB" stroke-width="0.48" stroke-linecap="round" stroke-linejoin="round"/>
<path d="M1145.52 670.617C1145.52 670.617 1115.09 589.983 1094.14 595.056C1073.19 600.155 1071.08 601.211 1052.01 585.941C1032.91 570.67 1019.04 587.341 1033.65 599.573C1048.26 611.806 1048.76 612.916 1034.84 626.363C1020.92 639.838 1054.12 654.897 1083.34 650.379C1112.55 645.835 1140.95 663.933 1145.52 670.617Z" fill="#236B44"/>
<path d="M1145.52 670.617C1145.52 670.617 1131.26 640.63 1092.82 632.863C1054.39 625.095 1072.35 599.758 1027.57 588.028" stroke="#FBFBFB" stroke-width="0.44" stroke-linecap="round" stroke-linejoin="round"/>
<path d="M1142.62 660.736C1126.63 660.736 1113.24 659.124 1109.28 656.931C1113.19 662.004 1125.74 684.593 1133.19 771.488C1133.19 772.757 1137.41 773.761 1142.62 773.761C1147.82 773.761 1152.05 772.73 1152.05 771.488C1159.5 684.593 1172.04 662.004 1175.95 656.931C1172.02 659.124 1158.6 660.736 1142.62 660.736Z" fill="#FFBB8A"/>
<circle cx="358.5" cy="333.5" r="132.5" fill="#F5F5F5"/>
<circle cx="1050.5" cy="823.5" r="20.5" fill="#FCFCFC"/>
<circle cx="1543.5" cy="293.5" r="79.5" fill="#CACACA" fill-opacity="0.06"/>
<circle cx="886" cy="337" r="4" fill="#F5F5F5"/>
<circle cx="217" cy="648" r="4" fill="#F5F5F5"/>
<circle cx="1739" cy="784" r="4" fill="#F5F5F5"/>
</g>
<defs>
<clipPath id="clip0_2202_5">
<rect width="1920" height="942" fill="white"/>
</clipPath>
</defs>
</svg>
