<svg width="299" height="315" viewBox="0 0 299 315" fill="none" xmlns="http://www.w3.org/2000/svg">
<mask id="mask0_1548_366" style="mask-type:luminance" maskUnits="userSpaceOnUse" x="4" y="-1" width="344" height="299">
<path d="M341.348 -0.76416H151.822C150.559 13.9098 141.669 41.1686 95.4831 55.7606C30.2546 76.3738 -1.36392 103.459 5.11377 151.423C11.5915 199.387 57.4177 233.076 119.823 242.497C182.239 251.918 201.015 290.533 252.949 296.165C295.788 300.804 323.239 295.059 347.63 281.624V5.51296C347.63 2.05184 344.818 -0.76416 341.338 -0.76416H341.348Z" fill="white"/>
</mask>
<g mask="url(#mask0_1548_366)">
<path d="M341.348 -0.76416H151.822C150.559 13.9098 141.669 41.1686 95.4831 55.7606C30.2546 76.3738 -1.36392 103.459 5.11377 151.423C11.5915 199.387 57.4177 233.076 119.823 242.497C182.239 251.918 201.015 290.533 252.949 296.165C295.788 300.804 323.239 295.059 347.63 281.624V5.51296C347.63 2.05184 344.818 -0.76416 341.338 -0.76416H341.348Z" fill="#F5F5F5"/>
<path d="M233.968 105.865L199.865 116.422L173.667 100.868C173.144 100.561 173.236 99.772 173.821 99.5979C176.993 98.6149 180.35 98.3487 183.635 98.8095L233.958 105.865H233.968Z" fill="#FFBB8A"/>
<path d="M180.709 98.6047L205.275 113.187L230.488 105.384L183.645 98.8198C182.67 98.6867 181.695 98.615 180.709 98.615V98.6047Z" fill="#FFBB8A"/>
<path d="M119.043 128.679L118.612 128.813C115.399 129.806 111.929 129.519 108.931 128.004L77.3025 112.029C76.0193 111.374 74.5205 111.251 73.1449 111.681L70.948 112.357C70.5271 112.49 70.3218 112.951 70.486 113.35L81.9221 140.179L83.5851 144.039L120.285 132.673L119.043 128.679Z" fill="#FFBB8A"/>
<path d="M152.047 145.729L292.349 102.281C300.398 99.7925 308.128 96.403 315.416 92.1842L333.874 81.4936C334.141 81.34 334.388 81.1557 334.613 80.9406C336.975 78.6878 335.66 74.7045 332.417 74.2949L311.752 71.6632C307.645 71.141 303.477 71.4994 299.515 72.7282L84.2626 139.391C83.7698 139.544 83.3387 139.851 83.0204 140.261C82.0144 141.602 82.62 143.538 84.2215 144.06L87.9583 145.279C108.757 152.047 131.157 152.201 152.047 145.729Z" fill="#FFBB8A"/>
<path d="M142.87 140.609L298.437 92.4299C307.358 89.6651 315.94 85.907 324.009 81.2376L334.449 75.1858C333.905 74.7147 333.217 74.387 332.406 74.2846L311.741 71.653C307.635 71.1307 303.467 71.4891 299.505 72.7179L84.2524 139.38C83.7597 139.534 83.3285 139.841 83.0103 140.251C82.343 141.142 82.3943 142.278 82.9692 143.108C102.751 147.449 123.396 146.63 142.86 140.599L142.87 140.609Z" fill="#FBFBFB"/>
<path d="M282.272 86.9835L283.585 86.5766C284.067 86.4274 284.337 85.9167 284.187 85.436L283.779 84.1256C283.63 83.6449 283.118 83.3762 282.636 83.5255L281.322 83.9324C280.84 84.0816 280.571 84.5923 280.72 85.073L281.128 86.3834C281.278 86.8641 281.79 87.1328 282.272 86.9835Z" fill="#FFBB8A"/>
<path d="M273.172 89.8468L274.486 89.4399C274.968 89.2907 275.237 88.78 275.087 88.2993L274.68 86.9889C274.53 86.5082 274.018 86.2395 273.536 86.3888L272.222 86.7957C271.74 86.9449 271.471 87.4556 271.621 87.9363L272.029 89.2467C272.178 89.7274 272.69 89.9961 273.172 89.8468Z" fill="#FFBB8A"/>
<path d="M264.07 92.6391L265.383 92.2322C265.865 92.0829 266.135 91.5722 265.985 91.0915L265.577 89.7811C265.427 89.3004 264.915 89.0317 264.433 89.181L263.12 89.5879C262.638 89.7372 262.369 90.2478 262.518 90.7285L262.926 92.039C263.076 92.5197 263.588 92.7883 264.07 92.6391Z" fill="#FFBB8A"/>
<path d="M254.97 95.4718L256.284 95.0649C256.766 94.9157 257.035 94.405 256.885 93.9243L256.477 92.6139C256.328 92.1332 255.816 91.8645 255.334 92.0138L254.02 92.4207C253.538 92.5699 253.269 93.0806 253.419 93.5613L253.826 94.8717C253.976 95.3524 254.488 95.6211 254.97 95.4718Z" fill="#FFBB8A"/>
<path d="M245.88 98.2504L247.194 97.8435C247.676 97.6942 247.945 97.1836 247.795 96.7029L247.388 95.3924C247.238 94.9117 246.726 94.6431 246.244 94.7923L244.93 95.1992C244.448 95.3485 244.179 95.8592 244.329 96.3399L244.737 97.6503C244.886 98.131 245.398 98.3997 245.88 98.2504Z" fill="#FFBB8A"/>
<path d="M236.781 101.063L238.095 100.656C238.576 100.506 238.846 99.9958 238.696 99.5151L238.288 98.2047C238.139 97.724 237.627 97.4553 237.145 97.6046L235.831 98.0115C235.349 98.1607 235.08 98.6714 235.229 99.1521L235.637 100.463C235.787 100.943 236.299 101.212 236.781 101.063Z" fill="#FFBB8A"/>
<path d="M227.681 103.926L228.995 103.519C229.477 103.37 229.746 102.859 229.596 102.378L229.189 101.068C229.039 100.587 228.527 100.319 228.045 100.468L226.731 100.875C226.249 101.024 225.98 101.535 226.13 102.015L226.538 103.326C226.687 103.807 227.199 104.075 227.681 103.926Z" fill="#FFBB8A"/>
<path d="M218.582 106.748L219.895 106.342C220.377 106.192 220.647 105.682 220.497 105.201L220.089 103.89C219.939 103.41 219.427 103.141 218.945 103.29L217.632 103.697C217.15 103.847 216.88 104.357 217.03 104.838L217.438 106.148C217.588 106.629 218.1 106.898 218.582 106.748Z" fill="#FFBB8A"/>
<path d="M209.482 109.561L210.796 109.154C211.278 109.005 211.547 108.494 211.397 108.013L210.989 106.703C210.84 106.222 210.328 105.953 209.846 106.103L208.532 106.51C208.05 106.659 207.781 107.169 207.931 107.65L208.338 108.961C208.488 109.441 209 109.71 209.482 109.561Z" fill="#FFBB8A"/>
<path d="M200.389 112.329L201.703 111.923C202.185 111.773 202.454 111.263 202.305 110.782L201.897 109.472C201.747 108.991 201.235 108.722 200.753 108.871L199.439 109.278C198.957 109.428 198.688 109.938 198.838 110.419L199.246 111.729C199.395 112.21 199.907 112.479 200.389 112.329Z" fill="#FFBB8A"/>
<path d="M191.29 115.152L192.603 114.745C193.085 114.596 193.355 114.085 193.205 113.604L192.797 112.294C192.647 111.813 192.135 111.545 191.653 111.694L190.34 112.101C189.858 112.25 189.588 112.761 189.738 113.241L190.146 114.552C190.296 115.033 190.808 115.301 191.29 115.152Z" fill="#FFBB8A"/>
<path d="M182.19 118.005L183.504 117.598C183.986 117.449 184.255 116.938 184.105 116.458L183.697 115.147C183.548 114.667 183.036 114.398 182.554 114.547L181.24 114.954C180.758 115.103 180.489 115.614 180.639 116.095L181.046 117.405C181.196 117.886 181.708 118.155 182.19 118.005Z" fill="#FFBB8A"/>
<path d="M173.09 120.828L174.404 120.421C174.886 120.272 175.155 119.761 175.006 119.28L174.598 117.97C174.448 117.489 173.936 117.22 173.454 117.37L172.141 117.777C171.659 117.926 171.389 118.437 171.539 118.917L171.947 120.228C172.096 120.708 172.608 120.977 173.09 120.828Z" fill="#FFBB8A"/>
<path d="M248.453 104.216L195.944 120.477L176.654 162.226C176.121 163.373 177.209 164.601 178.42 164.233L179.703 163.833C183.214 162.748 186.427 160.905 189.138 158.427L248.463 104.216H248.453Z" fill="#FFBB8A"/>
<path d="M187.495 159.164C187.382 159.41 187.351 159.655 187.362 159.891C187.967 159.43 188.563 158.949 189.127 158.427L248.453 104.216L206.949 117.067L187.495 159.154V159.164Z" fill="#FFBB8A"/>
<path d="M101.211 137.005L82.733 142.729L75.4546 158.468L78.8833 157.403L101.211 137.005Z" fill="#FFBB8A"/>
<path d="M92.3008 92C93.3684 90.0339 96.2839 88.6311 99.7229 88.6311C100.678 88.6311 101.591 88.7437 102.433 88.9485C102.854 87.7607 103.942 86.7264 105.431 86.0199C106.344 81.5962 112.278 78.176 119.474 78.176C124.905 78.176 129.617 80.1216 131.998 82.9786C133.312 82.4973 134.842 82.2106 136.474 82.2106C141.433 82.2106 145.447 84.7706 145.447 87.9245C145.447 88.1703 145.416 88.416 145.364 88.6618C145.631 88.6413 145.898 88.6311 146.175 88.6311C149.614 88.6311 152.53 90.0442 153.598 92H92.3111H92.3008Z" fill="#FBFBFB"/>
<path d="M-14.4939 123.744C-13.4263 121.778 -10.5108 120.375 -7.07175 120.375C-6.11703 120.375 -5.20337 120.488 -4.36158 120.692C-3.94068 119.505 -2.85253 118.47 -1.36399 117.764C-0.450342 113.34 5.48325 109.92 12.6795 109.92C18.1101 109.92 22.8221 111.866 25.2038 114.722C26.5178 114.241 28.0474 113.954 29.6796 113.954C34.638 113.954 38.6519 116.514 38.6519 119.668C38.6519 119.914 38.6211 120.16 38.5698 120.406C38.8367 120.385 39.1036 120.375 39.3808 120.375C42.8198 120.375 45.7353 121.788 46.8029 123.744H-14.4836H-14.4939Z" fill="#FBFBFB"/>
<path d="M235.6 143.558C236.668 141.592 239.583 140.189 243.022 140.189C243.977 140.189 244.891 140.302 245.733 140.507C246.154 139.319 247.242 138.285 248.73 137.578C249.644 133.155 255.577 129.734 262.774 129.734C268.204 129.734 272.916 131.68 275.298 134.537C276.612 134.056 278.142 133.769 279.774 133.769C284.732 133.769 288.746 136.329 288.746 139.483C288.746 139.729 288.715 139.974 288.664 140.22C288.931 140.2 289.198 140.189 289.475 140.189C292.914 140.189 295.829 141.603 296.897 143.558H235.611H235.6Z" fill="#FBFBFB"/>
<path d="M256.573 75.5034C255.495 73.5168 252.539 72.0833 249.048 72.0833C248.083 72.0833 247.149 72.1959 246.297 72.4007C245.876 71.1924 244.768 70.1479 243.258 69.4311C242.324 64.9357 236.309 61.4746 229.01 61.4746C223.497 61.4746 218.723 63.4509 216.301 66.3488C214.966 65.8573 213.416 65.5706 211.763 65.5706C206.733 65.5706 202.657 68.1716 202.657 71.3665C202.657 71.6225 202.688 71.8682 202.74 72.114C202.473 72.0935 202.196 72.0833 201.918 72.0833C198.428 72.0833 195.471 73.5168 194.394 75.5034H256.583H256.573Z" fill="#FBFBFB"/>
<path d="M249.172 21.733C250.024 20.1663 252.354 19.0399 255.095 19.0399C255.855 19.0399 256.584 19.1321 257.261 19.2857C257.6 18.3334 258.462 17.5142 259.653 16.951C260.382 13.4182 265.125 10.6841 270.863 10.6841C275.195 10.6841 278.963 12.2406 280.862 14.5138C281.909 14.1247 283.131 13.8994 284.435 13.8994C288.387 13.8994 291.6 15.9474 291.6 18.4665C291.6 18.661 291.569 18.8658 291.538 19.0502C291.754 19.0399 291.97 19.0297 292.185 19.0297C294.936 19.0297 297.256 20.1561 298.108 21.7228H249.172V21.733Z" fill="#FBFBFB"/>
<path d="M171.788 14.5651C172.168 13.8688 173.195 13.3671 174.416 13.3671C174.755 13.3671 175.073 13.408 175.381 13.4797C175.525 13.0599 175.915 12.6912 176.439 12.4454C176.767 10.8787 178.861 9.67041 181.407 9.67041C183.327 9.67041 185 10.3565 185.842 11.3703C186.304 11.1962 186.848 11.0938 187.423 11.0938C189.179 11.0938 190.595 11.9949 190.595 13.1213C190.595 13.2135 190.585 13.2954 190.564 13.3773C190.657 13.3773 190.749 13.3773 190.852 13.3773C192.073 13.3773 193.1 13.8791 193.48 14.5754H171.778L171.788 14.5651Z" fill="#FBFBFB"/>
<path d="M402.881 238.493H-7.73901V311.934H402.881V238.493Z" fill="#FFBB8A"/>
<path d="M402.881 211.398H-7.73901V227.27H402.881V211.398Z" fill="#FFBB8A"/>
<path opacity="0.1" d="M347.641 -0.764404H-13.7341V306.446H347.641V-0.764404Z" fill="#FFBB8A"/>
<g opacity="0.39">
<path d="M-18.4976 303.917H-34.584L174.283 -16.6978H190.369L-18.4976 303.917Z" fill="#FBFBFB"/>
<path d="M246.133 303.917H230.046L438.913 -16.6978H455L246.133 303.917Z" fill="#FBFBFB"/>
<path d="M216.414 303.917H155.938L364.805 -16.6978H425.291L216.414 303.917Z" fill="#FBFBFB"/>
<path d="M-47.5701 303.917H-108.056L100.821 -16.6978H161.307L-47.5701 303.917Z" fill="#FBFBFB"/>
</g>
<path d="M85.3303 -36.2561H76.4915V302.657H85.3303V-36.2561Z" fill="#FBFBFB"/>
<path d="M430.023 56.8051V47.7837L-40.9283 47.7837V56.8051L430.023 56.8051Z" fill="#FBFBFB"/>
</g>
<path d="M162.334 314.648C206.477 314.648 242.263 311.169 242.263 306.876C242.263 302.584 206.477 299.104 162.334 299.104C118.19 299.104 82.4045 302.584 82.4045 306.876C82.4045 311.169 118.19 314.648 162.334 314.648Z" fill="#F5F5F5"/>
<path d="M195.071 197.749L166.686 204.896C166.686 204.896 174.016 236.64 176.87 248.273C179.796 260.182 178.174 298.5 178.174 298.5H186.294L190.688 248.129L195.081 197.759L195.071 197.749Z" fill="#236B44"/>
<path d="M188.891 146.159C188.891 146.159 191.786 156.123 196.467 173.029C196.467 173.029 202.493 175.21 218.795 176.367L218.282 181.774C218.282 181.774 200.307 185.02 190.39 180.934C180.473 176.859 172.168 140.691 188.891 146.159Z" fill="#FFA689"/>
<path d="M204.608 181.006L213.108 190.826L226.843 172.988L221.29 162.298L204.608 181.006Z" fill="#5EB083"/>
<path d="M203.119 185.122L217.543 165.83L226.844 172.988L213.108 190.826L203.119 185.122Z" fill="#5EB083"/>
<path d="M224.452 176.951C224.39 176.654 224.01 176.541 223.754 176.705C223.261 177.023 222.665 177.76 221.269 177.801C219.873 177.842 218.046 176.869 217.44 177.504C217.44 177.504 214.422 181.344 217.481 185.143C217.481 185.143 226.741 187.549 224.452 176.951Z" fill="#FFA689"/>
<path d="M183.173 174.985C183.173 174.985 190.39 173.92 196.313 168.831C196.313 168.831 194.219 157.597 191.304 150.819C188.388 144.04 183.789 138.111 176.316 142.524C168.842 146.938 171.019 157.055 183.173 174.985Z" fill="#5EB083"/>
<path d="M159.059 170.459C159.059 170.459 165.218 174.36 173.031 174.36C173.031 174.36 178.8 164.489 181.028 157.454C183.255 150.429 183.656 142.934 175.104 141.408C166.553 139.882 161.574 148.965 159.049 170.459H159.059Z" fill="#5EB083"/>
<path d="M191.16 200.8C191.16 200.8 173.616 194.892 162.744 204.671C162.744 204.671 164.736 213.856 170.741 224.844C180.884 243.429 186.078 249.44 186.078 249.44C186.078 249.44 175.022 259.25 153.721 283.775C153.721 283.775 155.055 288.792 159.346 290.4C159.346 290.4 190.564 261.032 199.978 253.198C203.058 250.638 202.432 248.713 201.22 243.04C199.167 233.435 192.371 205.173 191.17 200.8H191.16Z" fill="#236B44"/>
<path d="M176.223 127.994L175.843 135.674C175.843 135.674 181.89 140.64 186.869 140.415L189.168 130.175L175.073 120.621L176.223 127.994Z" fill="#FFA689"/>
<path d="M179.128 126.652C179.128 126.652 182.342 132.632 188.203 134.455L189.168 130.164L179.128 126.642V126.652Z" fill="#ED8A6D"/>
<path d="M166.748 232.513L152.417 221.659C151.616 221.044 151.452 219.908 152.068 219.099C152.684 218.3 153.823 218.136 154.634 218.751L168.965 229.605C169.766 230.219 169.93 231.356 169.314 232.165C168.698 232.964 167.559 233.128 166.748 232.513Z" fill="#07150E"/>
<path d="M154.829 222.867L123.324 264.257" stroke="#07150E" stroke-width="0.94" stroke-miterlimit="10"/>
<path d="M164.921 230.537L133.415 271.917" stroke="#07150E" stroke-width="0.94" stroke-miterlimit="10"/>
<path d="M163.658 147.521C163.658 147.521 148.321 148.289 145.857 156.922C143.393 165.554 143.722 199.479 143.722 199.479C143.722 199.479 146.956 207.19 157.324 208.183C157.324 208.183 162.734 209.432 162.416 198.107C162.108 186.792 163.648 147.521 163.648 147.521H163.658Z" fill="#050D08"/>
<path d="M155.024 149.19C155.024 149.19 153.485 150.532 152.663 152.293C149.655 158.744 150.579 176.142 149.306 177.545C148.239 178.712 146.432 178.927 144.646 179.419C143.886 179.624 142.993 179.142 143.034 178.405C143.712 163.526 142.562 151.146 155.024 149.19Z" fill="#18432B"/>
<path d="M143.866 181.518C143.866 181.518 147.992 180.576 148.711 181.559C149.738 182.962 149.337 198.926 148.188 199.366C147.048 199.807 143.024 199.459 142.798 199.121C141.946 197.861 141.412 182.04 143.866 181.528V181.518Z" fill="#18432B"/>
<path d="M195.759 108.742C195.759 108.742 200.009 129.376 193.696 131.895C187.382 134.414 178.143 127.994 175.885 121.461C173.955 115.89 174.16 102.66 195.759 108.742Z" fill="#FFA689"/>
<path d="M189.497 111.978C189.497 111.978 191.211 116.361 187.823 117.395C185.062 118.235 184.261 120.262 184.261 120.262C184.261 120.262 183.697 115.859 180.689 115.695C177.414 115.521 177.599 120.18 180.473 122.474C180.473 122.474 180.473 128.004 176.223 128.004C176.223 128.004 166.635 117.027 170.823 110.401C170.207 108.384 173.072 102.998 180.422 102.312C187.772 101.626 189.887 103.336 195.471 101.605C200.81 99.9565 204.331 112.726 189.507 111.988L189.497 111.978Z" fill="#050D08"/>
<path opacity="0.22" d="M177.383 199.09L196.303 248.119L156.174 286.56" stroke="#FBFBFB" stroke-width="0.25" stroke-miterlimit="10"/>
<path d="M124.176 306.846C124.176 309.375 122.123 311.433 119.577 311.433C117.031 311.433 114.978 309.385 114.978 306.846C114.978 304.306 117.031 302.258 119.577 302.258C122.123 302.258 124.176 304.306 124.176 306.846Z" fill="#07150E"/>
<path d="M107.053 298.756C107.053 301.285 104.999 303.344 102.454 303.344C99.9077 303.344 97.8545 301.296 97.8545 298.756C97.8545 296.216 99.9077 294.168 102.454 294.168C104.999 294.168 107.053 296.216 107.053 298.756Z" fill="#07150E"/>
<path d="M144.317 263.377C144.317 263.377 145.734 283.857 138.384 295.162C131.033 306.467 120.306 304.634 120.306 304.634L122.513 301.173C122.513 301.173 130.263 304.337 134.852 292.264C139.451 280.191 138.527 267.657 138.527 267.657L144.307 263.377H144.317Z" fill="#07150E"/>
<path d="M135.817 257.591C135.817 257.591 140.416 258.031 144.061 262.394C146.874 265.752 125.819 298.234 121.086 305.443C120.521 306.303 119.474 306.702 118.478 306.436C115.091 305.535 107.258 303.108 101.571 298.828C101.571 298.828 123.303 260.786 135.817 257.591Z" fill="#050D08"/>
<path d="M137.449 257.95C137.449 257.95 120.162 247.576 110.882 256.188C104.722 261.902 92.855 277.999 88.256 284.348C87.1473 285.884 87.3218 287.994 88.6769 289.325C91.6437 292.223 97.8647 296.81 102.248 299.196C102.895 299.555 103.706 299.34 104.117 298.725C107.874 293.042 125.849 266.357 137.46 257.939L137.449 257.95Z" fill="#18432B"/>
<path d="M99.1686 270.924C98.491 270.391 97.4747 270.678 96.9512 271.364C94.7543 274.241 89.2621 281.44 88.4511 282.802C86.8599 285.464 93.3684 291.096 101.324 295.285C103.809 296.595 106.847 290.912 110.05 286.56C112.165 283.683 113.992 281.153 113.756 280.222C113.489 279.218 109.352 277.928 105.564 275.593C103.09 274.057 100.975 272.347 99.1686 270.934V270.924Z" fill="#236B44"/>
<path d="M137.45 257.95C137.45 257.95 129.637 252.43 118.561 252.256C109.147 252.113 98.8093 268.364 98.8093 268.364C97.4748 270.074 113.602 279.822 115.399 277.6C122.523 268.845 129.494 262.199 133.046 258.994C133.292 258.789 135.201 257.253 137.46 257.95H137.45Z" fill="#236B44"/>
<path d="M108.151 297.097L117.78 282.607C118.129 282.085 118.817 281.891 119.382 282.167L128.806 286.622C129.401 286.908 129.606 287.646 129.247 288.198L119.916 302.309C119.382 303.118 118.335 303.446 117.431 303.067L108.89 299.514C107.935 299.114 107.586 297.957 108.151 297.097Z" fill="#103F26"/>
<path d="M173.698 136.646C173.698 136.646 164.274 138.346 162.744 152.406C161.215 166.465 162.744 206.258 162.744 206.258C162.744 206.258 171.573 209.668 181.582 204.804C188.029 201.67 192.145 201.496 193.891 201.107C194.599 200.943 195.092 200.339 195.102 199.612C195.122 198.076 195.143 195.127 195.133 190.683C195.102 178.262 193.757 157.126 188.398 142.627C188.398 142.627 179.303 137.087 173.708 136.646H173.698Z" fill="#5EB083"/>
<path d="M180.052 162.328C172.189 161.939 166.368 165.083 162.067 169.906C161.985 186.495 162.744 206.258 162.744 206.258C162.744 206.258 168 208.275 174.981 206.975C169.982 199.346 169.941 192.352 174.262 183.771C177.722 176.91 180.052 162.328 180.052 162.328Z" fill="#5EB083"/>
<path d="M162.744 152.406C162.744 152.406 170.218 140.271 175.69 142.319C182.414 144.838 183.779 157.802 173.698 171.38L168.329 177.043L166.953 182.081C166.953 182.081 180.627 170.049 183.841 158.355C187.054 146.661 182.835 142.022 176.942 140.015C169.705 137.547 166.235 141.951 161.821 148.033L162.734 152.385L162.744 152.406Z" fill="#050D08"/>
<path d="M161.512 164.939C161.512 164.939 159.213 174.872 158.453 187.406C157.807 197.943 157.704 210.917 157.694 214.778C157.694 215.443 157.437 216.078 156.965 216.539C155.712 217.768 153.3 220.809 153.711 225.683C153.854 227.393 154.604 229.759 158.864 231.121C159.449 231.305 160.989 231.95 160.989 228.97C160.989 225.99 162.2 223.983 163.422 222.99C164.644 221.997 165.896 224.618 165.896 226.748C165.896 228.878 167.333 227.526 167.621 226.011C167.908 224.495 167.682 220.42 164.459 216.18C164.459 216.18 164.397 215.433 164.808 210.333C165.208 205.234 166.07 187.969 167.908 183.556C169.746 179.142 175.032 166.557 175.032 166.557L161.533 164.929L161.512 164.939Z" fill="#FFA689"/>
<path d="M159.059 171.442C159.059 171.442 165.219 174.36 173.031 174.36C173.031 174.36 178.8 164.489 181.028 157.454C183.255 150.429 183.656 142.934 175.104 141.408C166.553 139.882 161.574 149.948 159.049 171.442H159.059Z" fill="#5EB083"/>
<path d="M178.328 297.66C178.328 297.66 176.069 300.937 177.178 305.678C177.342 306.385 177.948 306.866 178.615 306.866H203.006C203.509 306.866 203.91 306.395 203.848 305.862C203.684 304.48 202.544 302.074 196.744 301.367C195.153 301.172 193.634 300.579 192.371 299.595C190.287 297.967 187.105 295.735 186.006 296.349C186.006 296.349 182.506 298.459 178.317 297.66H178.328Z" fill="#050D08"/>
<path d="M175.925 133.994C175.053 134.025 173.688 136.646 173.688 136.646C173.688 136.646 176.274 138.633 182.547 140.927C185.452 141.992 186.91 143.487 187.577 144.429C187.782 144.715 188.224 144.603 188.265 144.255C188.45 142.862 188.532 140.415 187.166 139.002C187.166 139.002 178.523 136.646 175.905 133.994H175.925Z" fill="#236B44"/>
<path d="M153.844 283.846C153.844 283.846 149.892 284.348 147.069 288.321C146.648 288.905 146.689 289.683 147.14 290.185L163.36 308.361C163.699 308.74 164.315 308.719 164.674 308.32C165.598 307.276 166.635 304.828 163.329 300.036C162.416 298.725 161.851 297.199 161.749 295.602C161.584 292.96 161.143 289.11 159.942 288.7C159.942 288.7 156.041 287.492 153.854 283.846H153.844Z" fill="#050D08"/>
<path d="M163.904 225.775L167.744 228.684L167.426 230.383L162.95 228.151L163.904 225.775Z" fill="#07150E"/>
<path d="M59.0603 260.898C59.0603 261.994 53.0548 262.885 45.6429 262.885C38.2311 262.885 32.2256 261.994 32.2256 260.898C32.2256 259.803 38.2311 258.912 45.6429 258.912C53.0548 258.912 59.0603 259.803 59.0603 260.898Z" fill="#103F26"/>
<path d="M45.6429 309.098C59.5674 309.098 70.8555 307.801 70.8555 306.2C70.8555 304.6 59.5674 303.302 45.6429 303.302C31.7183 303.302 20.4302 304.6 20.4302 306.2C20.4302 307.801 31.7183 309.098 45.6429 309.098Z" fill="#F5F5F5"/>
<path d="M48.9075 264.39C48.9075 264.39 46.1255 256.035 49.6774 252.256C53.2294 248.477 47.5422 242.098 55.9601 238.504C64.378 234.899 64.0906 226.482 71.41 226.451C78.7398 226.41 84.4989 223.011 86.8908 226.236C89.2827 229.462 78.1751 231.028 78.1546 236.507C78.1341 241.985 77.0459 242.507 74.0483 245.928C72.3647 247.843 73.1449 252.072 69.4082 256.178C66.4825 259.393 58.7729 258.308 48.9075 264.39Z" fill="#236B44"/>
<path d="M48.9075 264.39C48.9075 264.39 52.4184 256.004 60.4975 251.57C68.5767 247.126 65.7228 229.052 86.901 226.236" stroke="#FBFBFB" stroke-width="0.4" stroke-linecap="round" stroke-linejoin="round"/>
<path d="M50.5601 268.363C50.5601 268.363 49.0818 256.413 51.792 246.808C54.5022 237.203 50.0673 234.131 42.481 231.643C34.8843 229.165 39.6579 221.249 37.3994 213.866C35.141 206.483 29.4537 217.952 27.5648 207.906C25.6759 197.861 22.8015 192.669 20.502 193.099C18.2025 193.53 17.4325 195.752 15.8003 207.241C14.1578 218.73 6.16075 217.88 13.1004 226.994C20.04 236.097 21.8058 233.527 17.9561 241.432C9.72297 258.318 39.1959 253.321 50.5704 268.363H50.5601Z" fill="#5EB083"/>
<path d="M50.5602 268.363C50.5602 268.363 46.7824 248.262 35.8904 238.34C24.9984 228.417 17.7816 217.798 20.502 193.11" stroke="#FBFBFB" stroke-width="0.48" stroke-linecap="round" stroke-linejoin="round"/>
<path d="M46.7721 266.725C46.7721 266.725 34.946 235.473 26.8052 237.439C18.6645 239.415 17.8432 239.825 10.4314 233.906C3.00923 227.987 -2.38027 234.449 3.29669 239.19C8.97364 243.931 9.16867 244.361 3.75863 249.573C-1.65142 254.795 11.2526 260.632 22.6066 258.881C33.9605 257.12 44.9962 264.134 46.7721 266.725Z" fill="#236B44"/>
<path d="M46.7721 266.725C46.7721 266.725 41.2286 255.103 26.292 252.092C11.3553 249.082 18.336 239.261 0.935547 234.715" stroke="#FBFBFB" stroke-width="0.44" stroke-linecap="round" stroke-linejoin="round"/>
<path d="M45.6429 262.895C39.4321 262.895 34.2274 262.271 32.6875 261.421C34.2068 263.387 39.083 272.142 41.978 305.821C41.978 306.313 43.6205 306.702 45.6429 306.702C47.6652 306.702 49.3077 306.303 49.3077 305.821C52.2027 272.142 57.0789 263.387 58.5982 261.421C57.0686 262.271 51.8536 262.895 45.6429 262.895Z" fill="#FFBB8A"/>
</svg>
