<svg width="18" height="18" viewBox="0 0 18 18" fill="none" xmlns="http://www.w3.org/2000/svg">
<path fill-rule="evenodd" clip-rule="evenodd" d="M8.26069 0.0112695C7.33088 0.11849 6.58435 0.282826 5.91908 0.526705C3.10274 1.55916 0.977231 3.9157 0.257248 6.80398C0.0501304 7.63481 0.00488281 8.02936 0.00488281 9.00474C0.00488281 9.98011 0.0501304 10.3747 0.257248 11.2055C1.05759 14.4161 3.58878 16.9473 6.79939 17.7476C7.63022 17.9548 8.02477 18 9.00015 18C9.97552 18 10.3701 17.9548 11.2009 17.7476C14.4115 16.9473 16.9427 14.4161 17.743 11.2055C17.9502 10.3747 17.9954 9.98011 17.9954 9.00474C17.9954 8.02936 17.9502 7.63481 17.743 6.80398C17.0229 3.91492 14.9014 1.56286 12.0812 0.526811C11.6244 0.35899 10.8222 0.155991 10.303 0.0768345C9.95186 0.0232768 8.54735 -0.0217948 8.26069 0.0112695ZM9.65157 1.43493C10.4766 1.51504 11.1915 1.69149 11.9355 1.99847C13.7231 2.73616 15.2687 4.2818 16.0064 6.06942C16.7946 7.97932 16.7946 10.0302 16.0064 11.9401C15.2687 13.7277 13.7231 15.2733 11.9355 16.011C10.0256 16.7992 7.97473 16.7992 6.06483 16.011C4.27721 15.2733 2.73157 13.7277 1.99388 11.9401C1.20572 10.0302 1.20572 7.97932 1.99388 6.06942C2.73157 4.2818 4.27721 2.73616 6.06483 1.99847C7.22443 1.51993 8.48601 1.32173 9.65157 1.43493ZM12.2045 5.99677C12.1256 6.03051 11.3042 6.82602 9.92485 8.20447L7.76853 10.3594L6.86139 9.45517C5.9188 8.51553 5.78112 8.40856 5.51224 8.4069C5.32562 8.40574 5.03279 8.5661 4.92554 8.72822C4.81722 8.89188 4.78345 9.15037 4.84508 9.34394C4.87916 9.45109 5.14818 9.74155 6.108 10.7075C6.9133 11.518 7.37542 11.9573 7.46842 12.0008C7.65173 12.0865 7.88565 12.0857 8.0647 11.9986C8.26847 11.8995 13.0618 7.09898 13.1362 6.91954C13.2436 6.66017 13.172 6.30939 12.9745 6.12783C12.7796 5.94871 12.4485 5.89233 12.2045 5.99677Z" fill="white"/>
</svg>
